/* XPM */
static char * wall_left_50_xpm[] = {
"50 50 14 1",
" 	c #A88868",
".	c #906858",
"+	c #704838",
"@	c #502830",
"#	c #C8A878",
"$	c #E0C088",
"%	c #F8E098",
"&	c #000000",
"*	c #B89088",
"=	c #D8B0A0",
"-	c #987070",
";	c #E8D0C8",
">	c #805858",
",	c #604050",
"   -.>+@@@@@@@@@@@+++++++++++++@@@@@@@@@@@@@++>>..",
"   -.>+@@@@@@@@@@@@++++++++++++@@@@@@@@@@@@@++>...",
"   -.>+@@@@@@@@@@@@++++++++++++@@@@@@@@@@@@@++>...",
"   -.>+@@@@@@@@@@@@@@++++++++++@@@@@@@@@@@@@++>.  ",
"   -.>+@@@@@@@@@@@@@@@+++++++++@@@@@@@@@@@@@++.   ",
"   ..>+@@@@@@@@@@@@@@@++++++++++@@@@@@@@@@@@++.   ",
"--...>+@@@@@@@@@@@@@@@@@++++++++++@@@@@@@@@@++.   ",
".....>+@@@@@@@@@@@@@@@@@@+++++++++@@@@@@@@@@++.   ",
".....>++@@@@@@@@@@@@@@@@@++++++++++@@@@@@@@@@+.   ",
"......>>++@@@@@@@@@@@@@@@@++++++++++@@@@@++@@+>   ",
"........>+@@@@@@@@@@@@@@@@@@+++++++++@@@@++@@@>.  ",
".........>+@@@@@@@@@@@@@@@@@++++++++++@@++++@@>.  ",
"------...>>++@@@@@@@@@@@@@@@@+++++++++++++++@@+.- ",
"      .....>+@@@@@@@@@@@@@@@@@@+++++++++++++@@+>..",
"      -.....++@@@@@@@@@@@@@@@@@+++++++++++++@@+>..",
"      -...>>++@@@@@@@@@@@@@@@@@@++++++++++++@@+>..",
"      -.>>+++++@@@@@@@@@@@@@@@@@@@++++++++++@@+>..",
"      -..>++++++@@@@@@@@@@@@@@@@@@++++++++++@@+>..",
"       -..>++++++@@@@@@@@@@@@@@@@@@+++++++++@@+>..",
"         ..>>+++++@@@@@@@@@@@@@@@@@@@+++++++@@+>..",
"          ..>++++++@@@@@@@@@@@@@@@@@@+++++++@@+>..",
"          ..>+++++++@@@@@@@@@@@@@@@@@@++++++@@+>..",
"          ..>+++++++++@@@@@@@@@@@@@@@@@@++++@@+>..",
"         -..>+++++++++@@@@@@@@@@@@@@@@@@++++@@+>..",
"          ..>++++++++++@@@@@@@@@@@@@@@@@@++@@@+>..",
"          ..>+++++++++++++++@@@@@@@@@@@@@@@@@++>..",
"         -..>+++++++++++++++@@@@@@@@@@@@@@@@++>...",
"         ..>+++++++++++++++++@@@@@@@@@@@@,+++>>...",
"       -..>+++@++++++++++++++++@@@@@@@@@++>>>>....",
"      -..>++@@@@+++++++++++++++@@@@@@@@@+>........",
"      -.>>++@@@@++++++++++++++++@@@@@@@+>.........",
"      -.>>++@@@@@++++++++++++++++@@@@+>>..........",
"      -..>++@@@@@@++++++++++++++++@@@+............",
"      -..>++@@@@@@@+++++++++++++++@@@+>...........",
"      -..>++@@@@@@@@+++++++++++++++++++>>.........",
"      -..>++@@@@@@@@@++++++++++++++++@@,+.........",
"      -..>+++@@@@@@@@@+++++++++++++++@@@+>........",
"    -....>++++@@@@@@@@@+++++++++++++++@@++>>......",
"   -.....>++++++@@@@@@@@@++++++++++++++++@++......",
"   ......>++++++@@@@@@@@@+++++++++++++++@@@+>.....",
"   ......>+++++++@@@@@@@@@++++++++++++++@@@++>....",
"   ......>+++++++++@@@@@@@@@+++++++++++++@@@++>...",
"   ......>+++++++++@@@@@@@@@+++++++++++++@@@+++...",
"  -....>>+++++++++++@@@@@@@@@++++++++++++@@@@++>..",
"......>+++++++++++++++@@@@@@@@@++++++++++@@@@@+>..",
"......>+++++++++++++++@@@@@@@@@++++++++++@@@@@+>..",
">>>>>>+++++++++++++++++@@@@@@@@@++++++++@@@@@@+..-",
"+++++++++++++++++++++++++@@@@@@@@@++++@@@@@@@@>.  ",
"+++++++++++++++++++++++++@@@@@@@@@++++@@@@@@@@>.  ",
"+++++++++++++++++++++++++@@@@@@@@@++++@@@@@@@@>-  "};
