/* XPM */
static char * wr_50_xpm[] = {
"50 50 821 2",
"  	c #906858",
". 	c #8C6456",
"+ 	c #7F584D",
"@ 	c #6C4641",
"# 	c #613D3B",
"$ 	c #715245",
"% 	c #8C6D56",
"& 	c #9D7D61",
"* 	c #9D7C5F",
"= 	c #8F6D53",
"- 	c #7C5843",
"; 	c #714A39",
"> 	c #6E4636",
", 	c #704738",
"' 	c #704838",
") 	c #714938",
"! 	c #6D4537",
"~ 	c #663E35",
"{ 	c #5B3433",
"] 	c #532B31",
"^ 	c #4F2730",
"/ 	c #502830",
"( 	c #4F262F",
"_ 	c #4D242E",
": 	c #532C32",
"< 	c #633D3C",
"[ 	c #775148",
"} 	c #886253",
"| 	c #946E5B",
"1 	c #9C7960",
"2 	c #A48365",
"3 	c #AD8D6A",
"4 	c #B99970",
"5 	c #C1A175",
"6 	c #C3A375",
"7 	c #BC9C72",
"8 	c #B2926D",
"9 	c #AA8A69",
"0 	c #A78768",
"a 	c #A88768",
"b 	c #A88868",
"c 	c #936B5A",
"d 	c #8E6857",
"e 	c #815B4F",
"f 	c #6D4842",
"g 	c #623E3B",
"h 	c #6F4738",
"i 	c #6B4437",
"j 	c #643D35",
"k 	c #5A3332",
"l 	c #502730",
"m 	c #502930",
"n 	c #512931",
"o 	c #522B31",
"p 	c #593336",
"q 	c #67423F",
"r 	c #79534A",
"s 	c #896254",
"t 	c #956F5B",
"u 	c #9E7B61",
"v 	c #A68566",
"w 	c #AF8F6B",
"x 	c #C0A074",
"y 	c #C1A174",
"z 	c #BB9B71",
"A 	c #B1916C",
"B 	c #99745E",
"C 	c #946F5B",
"D 	c #866252",
"E 	c #714D44",
"F 	c #63403C",
"G 	c #725245",
"H 	c #9E7E61",
"I 	c #9D7D5F",
"J 	c #8F6D54",
"K 	c #7C5844",
"L 	c #6A4236",
"M 	c #5F3834",
"N 	c #583132",
"O 	c #522A30",
"P 	c #4F272F",
"Q 	c #512930",
"R 	c #563034",
"S 	c #5E3939",
"T 	c #68433F",
"U 	c #734E46",
"V 	c #80594E",
"W 	c #8C6555",
"X 	c #98725D",
"Y 	c #A38064",
"Z 	c #AD8C6A",
"` 	c #B4946E",
" .	c #B99A71",
"..	c #BB9C72",
"+.	c #B6966F",
"@.	c #A98969",
"#.	c #A07E63",
"$.	c #9B7960",
"%.	c #8C6B56",
"&.	c #755347",
"*.	c #65433D",
"=.	c #9D7D60",
"-.	c #714838",
";.	c #6E4637",
">.	c #694236",
",.	c #633C35",
"'.	c #5D3633",
").	c #542D31",
"!.	c #4E252F",
"~.	c #5D3838",
"{.	c #6C4741",
"].	c #795349",
"^.	c #815A4F",
"/.	c #876053",
"(.	c #8F6857",
"_.	c #9B755E",
":.	c #A98667",
"<.	c #B5946E",
"[.	c #BA9A71",
"}.	c #B79770",
"|.	c #B0906C",
"1.	c #AC8C6A",
"2.	c #A98968",
"3.	c #A68567",
"4.	c #A18163",
"5.	c #917159",
"6.	c #785849",
"7.	c #66443E",
"8.	c #705044",
"9.	c #896A54",
"0.	c #9B7B5F",
"a.	c #9B7A5D",
"b.	c #8D6B52",
"c.	c #7C5743",
"d.	c #714939",
"e.	c #6F4637",
"f.	c #653D35",
"g.	c #5C3533",
"h.	c #562E31",
"i.	c #593235",
"j.	c #66413E",
"k.	c #765148",
"l.	c #835C4F",
"m.	c #896253",
"n.	c #8B6355",
"o.	c #9B775E",
"p.	c #AD8B68",
"q.	c #BB9A71",
"r.	c #BF9F74",
"s.	c #B3936D",
"t.	c #A48465",
"u.	c #94745B",
"v.	c #7A5B4B",
"w.	c #65443D",
"x.	c #6C4B41",
"y.	c #82624E",
"z.	c #927258",
"A.	c #927157",
"B.	c #88654D",
"C.	c #795441",
"D.	c #6F4737",
"E.	c #6A4336",
"F.	c #663F35",
"G.	c #573032",
"H.	c #5E3839",
"I.	c #67413E",
"J.	c #714B44",
"K.	c #7C564A",
"L.	c #845D4F",
"M.	c #875F50",
"N.	c #8A6352",
"O.	c #98745A",
"P.	c #AD8B67",
"Q.	c #BD9C71",
"R.	c #C2A275",
"S.	c #A48566",
"T.	c #94755B",
"U.	c #7B5C4B",
"V.	c #64423C",
"W.	c #65423B",
"X.	c #765444",
"Y.	c #84624C",
"Z.	c #85624B",
"`.	c #7F5A45",
" +	c #764F3D",
".+	c #5E3733",
"++	c #542C31",
"@+	c #4E262F",
"#+	c #532B32",
"$+	c #6C4742",
"%+	c #7E574A",
"&+	c #7F5849",
"*+	c #7E5647",
"=+	c #7C5446",
"-+	c #815A49",
";+	c #916D54",
">+	c #A98864",
",+	c #BC9C70",
"'+	c #B0916C",
")+	c #A78767",
"!+	c #A38365",
"~+	c #93745B",
"{+	c #62403B",
"]+	c #5D3835",
"^+	c #684339",
"/+	c #744F3F",
"(+	c #77513F",
"_+	c #754F3D",
":+	c #724A3A",
"<+	c #562F31",
"[+	c #522A31",
"}+	c #68423F",
"|+	c #785249",
"1+	c #825B4F",
"2+	c #835C4E",
"3+	c #7E5748",
"4+	c #785141",
"5+	c #754D3E",
"6+	c #744C3D",
"7+	c #7B5442",
"8+	c #8D6B50",
"9+	c #A78762",
"0+	c #BB9B6F",
"a+	c #A48265",
"b+	c #9E7D62",
"c+	c #8F6F58",
"d+	c #785749",
"e+	c #5F3C39",
"f+	c #573031",
"g+	c #5E3632",
"h+	c #674036",
"i+	c #6E4638",
"j+	c #6B4337",
"k+	c #5F3833",
"l+	c #512A30",
"m+	c #512A31",
"n+	c #5D3738",
"o+	c #66403D",
"p+	c #714C44",
"q+	c #7D574B",
"r+	c #845D4E",
"s+	c #825B4B",
"t+	c #7B5444",
"u+	c #744D3D",
"v+	c #734C3B",
"w+	c #76503E",
"x+	c #805C47",
"y+	c #937154",
"z+	c #AA8A64",
"A+	c #BB9B72",
"B+	c #98745D",
"C+	c #8A6754",
"D+	c #735146",
"E+	c #5C3837",
"F+	c #552D2F",
"G+	c #5D3532",
"H+	c #633B34",
"I+	c #694136",
"J+	c #6D4637",
"K+	c #593132",
"L+	c #532C31",
"M+	c #5F393A",
"N+	c #765047",
"O+	c #7C554A",
"P+	c #7F5748",
"Q+	c #724B3A",
"R+	c #77513E",
"S+	c #805D47",
"T+	c #8E6C52",
"U+	c #9E7E5D",
"V+	c #B19169",
"W+	c #BE9E72",
"X+	c #916B59",
"Y+	c #856051",
"Z+	c #714D45",
"`+	c #5E3838",
" @	c #572F31",
".@	c #653E35",
"+@	c #6B4336",
"@@	c #593335",
"#@	c #69433F",
"$@	c #825B4E",
"%@	c #835C4D",
"&@	c #795242",
"*@	c #754E3E",
"=@	c #734B3B",
"-@	c #754E3D",
";@	c #7E5A45",
">@	c #8C6A51",
",@	c #A98966",
"'@	c #B7976E",
")@	c #B1916D",
"!@	c #916958",
"~@	c #8D6656",
"{@	c #845E51",
"]@	c #67423E",
"^@	c #542D32",
"/@	c #603934",
"(@	c #572F32",
"_@	c #562F34",
":@	c #5C3638",
"<@	c #65403D",
"[@	c #724C44",
"}@	c #7E574B",
"|@	c #855E4F",
"1@	c #845D4D",
"2@	c #7F5848",
"3@	c #7A5343",
"4@	c #795241",
"5@	c #7A5442",
"6@	c #7F5B46",
"7@	c #89664E",
"8@	c #957459",
"9@	c #A28263",
"0@	c #AE8E6B",
"a@	c #C3A376",
"b@	c #BE9E73",
"c@	c #AF8F6C",
"d@	c #A98A69",
"e@	c #8F6757",
"f@	c #8D6556",
"g@	c #886053",
"h@	c #805A4E",
"i@	c #6D4742",
"j@	c #613B3A",
"k@	c #573034",
"l@	c #593232",
"m@	c #5F3A3A",
"n@	c #754F47",
"o@	c #7B5449",
"p@	c #81594A",
"q@	c #815949",
"r@	c #815A4A",
"s@	c #845E4C",
"t@	c #89654F",
"u@	c #8F6C54",
"v@	c #967459",
"w@	c #A68666",
"x@	c #C5A576",
"y@	c #BD9D72",
"z@	c #B7976F",
"A@	c #B1926D",
"B@	c #8E6657",
"C@	c #855E51",
"D@	c #7A544A",
"E@	c #6A4540",
"F@	c #5A3436",
"G@	c #532B30",
"H@	c #5A3336",
"I@	c #6A4440",
"J@	c #815B4E",
"K@	c #815A4C",
"L@	c #7D5647",
"M@	c #835C4C",
"N@	c #906B57",
"O@	c #97745B",
"P@	c #9C7B5F",
"Q@	c #A18062",
"R@	c #A88867",
"S@	c #C6A677",
"T@	c #C4A476",
"U@	c #BF9F73",
"V@	c #B89870",
"W@	c #956E5B",
"X@	c #936D5A",
"Y@	c #926A59",
"Z@	c #6F4A44",
"`@	c #5C3637",
" #	c #552E33",
".#	c #5B3537",
"+#	c #643F3C",
"@#	c #724D45",
"##	c #7F584C",
"$#	c #845C4D",
"%#	c #805949",
"&#	c #896351",
"*#	c #926D59",
"=#	c #99755E",
"-#	c #A07E62",
";#	c #A58466",
">#	c #C7A778",
",#	c #C9A978",
"'#	c #C8A878",
")#	c #BD9D73",
"!#	c #B5956F",
"~#	c #AB8B6A",
"{#	c #9C7860",
"]#	c #9B775F",
"^#	c #96705C",
"/#	c #835C50",
"(#	c #704A44",
"_#	c #4C232E",
":#	c #6B4540",
"<#	c #734E45",
"[#	c #7A5448",
"}#	c #7F584A",
"|#	c #815A4B",
"1#	c #805849",
"2#	c #825A4A",
"3#	c #896350",
"4#	c #926E58",
"5#	c #A17E63",
"6#	c #C9A979",
"7#	c #BC9D72",
"8#	c #A38265",
"9#	c #A28064",
"0#	c #98735E",
"a#	c #906958",
"b#	c #704B44",
"c#	c #6B4541",
"d#	c #815A4E",
"e#	c #7C5445",
"f#	c #7E5747",
"g#	c #926D58",
"h#	c #9A775E",
"i#	c #A48366",
"j#	c #A68667",
"k#	c #A17F63",
"l#	c #9A755F",
"m#	c #916A59",
"n#	c #542E33",
"o#	c #755047",
"p#	c #865E4F",
"q#	c #916C58",
"r#	c #97735C",
"s#	c #9C795F",
"t#	c #9F7E61",
"u#	c #A38263",
"v#	c #A98967",
"w#	c #B4946D",
"x#	c #C6A777",
"y#	c #AA8B69",
"z#	c #A78667",
"A#	c #9A765F",
"B#	c #926B59",
"C#	c #896153",
"D#	c #603A3A",
"E#	c #5F3939",
"F#	c #8A6252",
"G#	c #886350",
"H#	c #99765E",
"I#	c #97755B",
"J#	c #947358",
"K#	c #937257",
"L#	c #9D7D5E",
"M#	c #AA8966",
"N#	c #B5956E",
"O#	c #A18064",
"P#	c #926C5A",
"Q#	c #8A6254",
"R#	c #8D6555",
"S#	c #8B6353",
"T#	c #8B6453",
"U#	c #9E7C61",
"V#	c #9A785D",
"W#	c #906E55",
"X#	c #87644D",
"Y#	c #825F49",
"Z#	c #825E48",
"`#	c #815D48",
" $	c #84614A",
".$	c #8D6B51",
"+$	c #9C7B5D",
"@$	c #AA8A67",
"#$	c #AB8B69",
"$$	c #936C5A",
"%$	c #8C6455",
"&$	c #825C4F",
"*$	c #714C45",
"=$	c #845D50",
"-$	c #8C6556",
";$	c #916A58",
">$	c #946E5A",
",$	c #A28163",
"'$	c #9A795D",
")$	c #8B6850",
"!$	c #7B5743",
"~$	c #744D3C",
"{$	c #714A3A",
"]$	c #734D3D",
"^$	c #7D5946",
"/$	c #8C6B52",
"($	c #9B7B5E",
"_$	c #A88967",
":$	c #B4956E",
"<$	c #AE8F6B",
"[$	c #9A755E",
"}$	c #916959",
"|$	c #8F6758",
"1$	c #865F51",
"2$	c #744E46",
"3$	c #603B3A",
"4$	c #583235",
"5$	c #694440",
"6$	c #744F47",
"7$	c #916858",
"8$	c #97715D",
"9$	c #9A7A5D",
"0$	c #89674F",
"a$	c #78523F",
"b$	c #6D4435",
"c$	c #6C4336",
"d$	c #684034",
"e$	c #6E493D",
"f$	c #795847",
"g$	c #886852",
"h$	c #96775C",
"i$	c #A68765",
"j$	c #BD9E73",
"k$	c #B5966F",
"l$	c #734D46",
"m$	c #A58465",
"n$	c #6E4536",
"o$	c #643C34",
"p$	c #5F3733",
"q$	c #5F3A36",
"r$	c #65423C",
"s$	c #81624E",
"t$	c #95765B",
"u$	c #A78866",
"v$	c #C5A577",
"w$	c #8A6354",
"x$	c #6F4A43",
"y$	c #613C3B",
"z$	c #724C45",
"A$	c #A18162",
"B$	c #96755A",
"C$	c #613A34",
"D$	c #532D32",
"E$	c #5B3736",
"F$	c #6C4C41",
"G$	c #846450",
"H$	c #997A5E",
"I$	c #C3A476",
"J$	c #A17F64",
"K$	c #926C59",
"L$	c #865F52",
"M$	c #96715C",
"N$	c #A07D63",
"O$	c #9F7E60",
"P$	c #97765A",
"Q$	c #815D47",
"R$	c #704737",
"S$	c #4B202E",
"T$	c #755546",
"U$	c #8B6A53",
"V$	c #AA8A66",
"W$	c #7C564C",
"X$	c #97725D",
"Y$	c #A58566",
"Z$	c #89664F",
"`$	c #785340",
" %	c #4C222E",
".%	c #5A3435",
"+%	c #6A473D",
"@%	c #7C5947",
"#%	c #542D33",
"$%	c #876052",
"%%	c #744E3C",
"&%	c #684136",
"*%	c #5A3333",
"=%	c #643E36",
"-%	c #704A3C",
";%	c #7E5A46",
">%	c #9D7C5E",
",%	c #9B765F",
"'%	c #7E584D",
")%	c #906758",
"!%	c #9B7860",
"~%	c #A38165",
"{%	c #9F7F61",
"]%	c #98775B",
"^%	c #805C46",
"/%	c #684036",
"(%	c #623B34",
"_%	c #5B3432",
":%	c #552D31",
"<%	c #836049",
"[%	c #906E54",
"}%	c #99795C",
"|%	c #A07F61",
"1%	c #6F4943",
"2%	c #724A39",
"3%	c #552E31",
"4%	c #5B3332",
"5%	c #694135",
"6%	c #724B3B",
"7%	c #7A5441",
"8%	c #825E49",
"9%	c #8B6951",
"0%	c #623D3B",
"a%	c #8B6455",
"b%	c #9F7E62",
"c%	c #9F7F62",
"d%	c #88664E",
"e%	c #6F4838",
"f%	c #A88968",
"g%	c #93705A",
"h%	c #866152",
"i%	c #643E3C",
"j%	c #946D5B",
"k%	c #94705B",
"l%	c #95745C",
"m%	c #927259",
"n%	c #8A6951",
"o%	c #7D5A46",
"p%	c #734D3C",
"q%	c #6C4437",
"r%	c #734E3E",
"s%	c #85644E",
"t%	c #98785C",
"u%	c #9A7A5F",
"v%	c #896854",
"w%	c #775449",
"x%	c #886153",
"y%	c #8F6858",
"z%	c #8A6554",
"A%	c #846251",
"B%	c #7E5E4C",
"C%	c #785746",
"D%	c #734F3E",
"E%	c #704839",
"F%	c #643C35",
"G%	c #673F35",
"H%	c #673F34",
"I%	c #6B473C",
"J%	c #805F4C",
"K%	c #96765B",
"L%	c #96775D",
"M%	c #80604F",
"N%	c #69463F",
"O%	c #552F33",
"P%	c #896354",
"Q%	c #9D7960",
"R%	c #8A6454",
"S%	c #7D584D",
"T%	c #704D44",
"U%	c #68453D",
"V%	c #67433A",
"W%	c #6B4539",
"X%	c #6C4537",
"Y%	c #633B33",
"Z%	c #7D5D4C",
"`%	c #95755B",
" &	c #603D3A",
".&	c #4B1F2D",
"+&	c #66423E",
"@&	c #7C584B",
"#&	c #8E6957",
"$&	c #A28264",
"%&	c #9A785F",
"&&	c #8E6A57",
"*&	c #613B3B",
"=&	c #593234",
"-&	c #674035",
";&	c #583032",
">&	c #613F3A",
",&	c #A38465",
"'&	c #5D3B38",
")&	c #4B212D",
"!&	c #481C2B",
"~&	c #694640",
"{&	c #815F4F",
"]&	c #94725B",
"^&	c #9F7D62",
"/&	c #A68466",
"(&	c #A18164",
"_&	c #94735B",
":&	c #826050",
"<&	c #623C3C",
"[&	c #573035",
"}&	c #572E30",
"|&	c #603E3A",
"1&	c #7C5C4C",
"2&	c #613F3B",
"3&	c #4B202D",
"4&	c #563033",
"5&	c #866652",
"6&	c #9A795F",
"7&	c #9D7E61",
"8&	c #8C6C56",
"9&	c #765447",
"0&	c #50272F",
"a&	c #A07F63",
"b&	c #93735B",
"c&	c #805F4E",
"d&	c #6B4841",
"e&	c #5C3537",
"f&	c #583335",
"g&	c #6D4D43",
"h&	c #896954",
"i&	c #A08062",
"j&	c #84644F",
"k&	c #6E4C41",
"l&	c #5D3735",
"m&	c #6E4738",
"n&	c #673F36",
"o&	c #603834",
"p&	c #4D232E",
"q&	c #9D7A61",
"r&	c #9A775F",
"s&	c #936F5A",
"t&	c #876353",
"u&	c #7A554A",
"v&	c #5C3838",
"w&	c #6E4E43",
"x&	c #8A6B55",
"y&	c #8A6850",
"z&	c #6D493C",
"A&	c #603933",
"B&	c #95705C",
"C&	c #8C6656",
"D&	c #855F51",
"E&	c #5F3B39",
"F&	c #886954",
"G&	c #9C7C60",
"H&	c #967559",
"I&	c #88654E",
"J&	c #744F3E",
"K&	c #6F483A",
"L&	c #8E6757",
"M&	c #5F3A39",
"N&	c #6B4A41",
"O&	c #836450",
"P&	c #95755A",
"Q&	c #97775B",
"R&	c #7E5945",
"S&	c #7E5F4D",
"T&	c #A98A68",
"U&	c #896154",
"V&	c #623C3B",
"W&	c #5B3536",
"X&	c #65433C",
"Y&	c #795848",
"Z&	c #886750",
"`&	c #8B6950",
" *	c #835F49",
".*	c #4A1D2C",
"+*	c #4C212E",
"@*	c #603F3A",
"#*	c #82644F",
"$*	c #A08261",
"%*	c #B2936C",
"&*	c #562F33",
"**	c #5E3A37",
"=*	c #6D4A3E",
"-*	c #795543",
";*	c #795340",
">*	c #67473E",
",*	c #8A6C53",
"'*	c #A98A66",
")*	c #BC9C71",
"!*	c #906A58",
"~*	c #845F51",
"{*	c #4F2630",
"]*	c #653F36",
"^*	c #6E4739",
"/*	c #704939",
"(*	c #542F32",
"_*	c #5A3636",
":*	c #65453C",
"<*	c #7A5C49",
"[*	c #987A5B",
"}*	c #B2936A",
"|*	c #C2A274",
"1*	c #9B7760",
"2*	c #97735D",
"3*	c #896654",
"4*	c #725045",
"5*	c #6D4436",
"6*	c #5C3937",
"7*	c #6F5042",
"8*	c #84664F",
"9*	c #987A5A",
"0*	c #AB8C66",
"a*	c #BB9C70",
"b*	c #CAAA79",
"c*	c #A38164",
"d*	c #8F6E58",
"e*	c #775749",
"f*	c #5E3A39",
"g*	c #9F815F",
"h*	c #B1926A",
"i*	c #BC9D71",
"j*	c #C7A777",
"k*	c #95755C",
"l*	c #7F5F4E",
"m*	c #67443E",
"n*	c #573135",
"o*	c #512731",
"p*	c #593436",
"q*	c #715144",
"r*	c #937558",
"s*	c #AF9069",
"t*	c #C0A073",
"u*	c #886754",
"v*	c #755247",
"w*	c #5C3532",
"x*	c #69443F",
"y*	c #805E4D",
"z*	c #9E7E5E",
"A*	c #9E7D61",
"B*	c #926F5A",
"C*	c #765048",
"D*	c #67413F",
"E*	c #8D6955",
"F*	c #A58463",
"G*	c #B9996F",
"H*	c #98745E",
"I*	c #6E4842",
"J*	c #50282F",
"K*	c #95705B",
"L*	c #AA8867",
"M*	c #BB9A70",
"N*	c #BE9F73",
"O*	c #613934",
"P*	c #5E3633",
"Q*	c #724B45",
"R*	c #98735D",
"S*	c #AC8968",
"T*	c #BC9A71",
"  . + @ # $ % & * = - ; > , ' ' ' ' ) ' ! ~ { ] ^ ^ / / / / ( _ : < [ } | 1 2 3 4 5 6 7 8 9 0 a b b ",
"c d e f g $ % & * = - ; > , ' ' ' ' ' h i j k ] l ^ / / / m n o p q r s t u v w 4 x y z A 9 0 b b b ",
"B C D E F G % H I J K ; > , ' ' ' h ! L ~ M N O / / / P ( Q R S T U V W X Y Z `  .7 ..+.w @.b b b b ",
"#.$.%.&.*.G % H =.J K ; > , ' -.' ;.>.,.'.N ).Q / / / ( !.o ~.{.].^./.(._.:.<.[.[.}.` |.1.2.b b b b ",
"3.4.5.6.7.8.9.0.a.b.c.d.e., ' ' h i f.g.h.o Q / / / m Q o i.j.k.l.m.n.(.o.p.q.r.z s.3 9 2.b b b b b ",
"@.t.u.v.w.x.y.z.A.B.C.d.D.' h ! E.F.M G.O ^ / / ^ P n R H.I.J.K.L.M.M.N.O.P.Q.R...A @.0 b b b b b b ",
"9 S.T.U.V.W.X.Y.Z.`. +d.' ' ;.>.,..+N ++/ ^ l / @+!.#+S $+[ K.%+&+*+=+-+;+>+,+R...'+2.)+0 b b b b b ",
"b !+~+v.{+]+^+/+(+_+:+' ' h i j g.<+] Q / / / / / [+i.}+|+1+2+3+4+5+6+7+8+9+0+y 7 A @.0 b b b b b b ",
"a+b+c+d+e+f+g+h+i i+h h ;.j+F.k+G.l+/ / / ^ ^ m+R n+o+p+q+r+s+t+u+v+w+x+y+z+,+y A+A @.0 b b b b b b ",
"1 B+C+D+E+O F+G+H+I+! J+>.j .+K+L+/ ^ / / @+@+: M+$+N+O+%+P+t+5+Q+R+S+T+U+V+W+R.z |.2.)+0 b b b b b ",
"t X+Y+Z+`+L+O  @'..@j++@j g.<+] Q / / / / / m+@@#@|+$@%@3+&@*@=@-@;@>@a.,@'@y R...)@9 b b b b b b b ",
"!@~@{@k.]@n+R ^@N /@F.~ M (@l+/ / / ^ l [+_@:@<@[@}@|@1@2@3@4@5@6@7@8@9@0@[.R.a@b@+.c@1.d@b b b b b ",
"e@f@g@h@[ i@j@k@).l@.+.+l@L+/ ^ / l @+@+^@m@@ n@o@%+p@p@q@r@s@t@u@v@=.w@|.[.R.x@R.y@z@A@1.b 0 b b b ",
"    B@n.C@D@E@F@o G@h.<+++l+/ / / / ^ n H@I@].J@K@L@t+*+M@N.N@O@P@Q@2 R@c@ .R.S@S@T@U@V@|.9 b b b b ",
"W@| X@Y@f@e Z@`@Q @+/ Q Q / / ^ / [+ #.#+#@###|@$#*+t+%#&#*#=#-#;#)+0 2.c@4 R.>#,#'#T@)#!#w ~#d@b b ",
"{#]#B ^#  /#(#.#P _#( ^ / / ^ @+(  #m@:#<#[#}#|#p@1#2#3#4#]#5#;#b @.@.9 |.[.6 '#6#,#S@R.7#z@8 3 @.b ",
"8#9#u 0#a#/#b#n+n !.^ / / / / ( n F@c#r d#K@L@e#f#M@N.g#h##.i#j#0 b 0 2.w 4 R.>#,#'#>#S@a@U@V@|.9 b ",
"0 v k#l#m#C@n@<@F@ #o / ^ / [+n#F@<@o#/#m.p#P+t+-+&#q#r#s#t#Q@4.4.4.Q@u#v#w#W+T@x#>#'#'#>#T@7 8 y#0 ",
"2.z#9#A#B#C#+ n@E@D#R / _ P  #E#E@n@h@s f@F#$#s+G#g#B+H#I#8@J#J#J#K#K#8@L#M#N#b@a@S@'#6#,#x@y@8 9 )+",
"2.z#O#A#P#f@C#/#r :#.#Q _ Q .#:#r /#Q#~@e@R#S#T#g#h#U#V#W#X#Y#Z#Y#Z#`# $.$+$@$N#)#a@>#6#,#x@y@s.#$0 ",
"b j#k#A#$$  e@%$&$*$S : o p <@o#=$-$e@    a#;$>$A#k#,$'$)$!$~$v+~$v+{$]$^$/$($_$:$b@T@>#>#x@b@!#<$1.",
"b j#k#[$$$}$}$|$1$2$3$4$`+5$6$h@Q#|$7$  }$X@8$]##.;#t.9$0$a$e.b$> c$d$h+e$f$g$h$i$w#j$a@S@S@R.7 z@k$",
"b j#k#[$$$!@}$e@C@l$j@`+E@]./#s ~@      B#8$1 k#;#0 m$'$7@a$D.n$;.L o$p$q$r$8.s$t$u$` )#a@S@v$R.x U@",
"b j#k#A#$$|$B@w$h@x$D#y$z$/#%$e@    !@B#t ]#k#;#j#v A$B$X#a$' D.h L C$l@^@D$E$F$G$H$v#N#b@I$x@T@a@6 ",
"b j#J$A#K$%$L$V n@j..#y$n@L$e@}$!@m#X@M$A#N$i#j#t.O$P$b.Q$ +' R$h L /@<+( S$^ e+T$U$+$V$N#7#r.U@b@b@",
"b j#9#A#X+g@W$J.<@F@k@y$n@L$|$}$!@P#X$1 5#i#z#Y$O$J#Z$x+`$v+' ' h L /@<+P  %( .%+%@%>@+$@$8 !#N#` ` ",
"b j#9#A#m#=$l$< 4$#%p o+|+$%e@  !@X@A##.;#j#v 4.P$7@c.%%:+d.' h J+&%M <+Q / ] *%=%-%;%= >%w@9 #$#$~#",
"b j#9#,%X+/#(#n+_@.#j.z$'%s e@)%  | !%~%w@t.{%]%b.^%%%D.D.h ;.i /%(%_%).o :%l@p$o$i w+<%[%}%|%t.)+b ",
"b j#9#,%X+/#1%`+`@T k.h@$%. e@)%  | {#8#m$O$J#0$x+a$2%D.D.h i F./@k 3%o ).4%C$F.5%! 6%7%8%9%8@{%Y$b ",
"b j#k#=#d V i@E#0%l$/#a%e@a#}$a#!@X@A#b%c%B$d%c.-@Q+d.' ' h L (%4%3%] ++N /@&%! D.e%d.Q+_+;@/$($Y$f%",
"b v b+g%h%[ I.n+i%[ g@!@| ^#^#j%B#B#k%l%m%n%o%p%D.D.' ' ' h j+j '.k l@4%M ~ q%' ) ' h +@E.r%s%t%t.2.",
"2.Y$u%v%w%T `@@@i%[ x%$$B {#{#B | y%z%A%B%C%D%E%e.D.' ' ' h ! >..@F%,.j G%j+;.' ) -.;.H%H+I%J%K%t.2.",
"2.t.L%M%N%4$n O%+#|+P%t Q%k#k#1 | R%S%T%U%V%W%h ' ' ' ' ' ' h ;.! q%q%X%! ;.h ' ' h q%Y%'.W.Z%`%t.2.",
"@.t.T.U. &@+.&^@+&@&#&=#k#;#$&%&&&h@J.*&=&'.-&;.' ' ' ' ' ' ' ' ' ' ' ' ' ' ' h ;.j+F.G+;&>&U.T.,&@.",
"@.t.T.v.'&)&!&n#~&{&]&^&/&z#(&_&:&*$<&[&++4%F.;.' ' ' ' ' ' ' ' ' -.) -.) ) ' ;.L j p$}&++|&U.T.,&@.",
"b !+T.1&2&l 3&4&x.5&6&2 a w@7&8&9&g k@: h..+h+;.' ' ' ' ' ' ' ' ' ' ' ' ' ' h q%.@'.<+0&Q |&U.T.,&@.",
"2 a&b&c&d&e&#+f&g&h&& Y$v i&K%j&k&l&h. @{ (%>.m&' ' ' ' ' ' ' ' ' ' ' ' h ;.i n&o&G.l+p&l |&U.T.!+2.",
"q&r&s&t&u&i@E#v&w&x&H t.{%8@y&@%z&,.k+A&,.h+q%h ' ' ' ' ' ' ' ' ' ' ) ' ;.L f.M l@++/  %^  &U.~+!+b ",
"B&| X+C&D&].}+E&w&F&G&{%H&I&K J&K&i L L i ! m&' ' ' ' ' ' ' ' ' ' ' ' h i f.'.G.++l+/ p&l |&1&`%t.@.",
"!@  L&a%C@D@#@M&N&O&P&Q&b.R&v+' ' e%h h h ' ' ' ' ' ' ' ' ' ' ' ' h ;.q%n&M G.O / / l  %( >&S&H$T&w ",
"e@f@U&&$D@x$V&W&X&Y&Z&`& *(+' e.' ) ) ) -.' ' ' ' ' ' ' ' ' ' ) ' ;.L .@o&l@++/ ^ / ( .*+*@*#*$*%*4 ",
"  ~@C@|+I@E#k@&***=*-*K ;*v+' D.' ' ' ' ' ' ' ' ' ' ' ' ' ' ' ' h j+j '.G.++l+/ / / /  %Q >*,*'*)*R.",
"| !*~*@#S o {*[+*%]*^*{$/*i+X%q%q%! ;.h ' ' ' ' ' ' ' ' ' ' h i+q%G%k+G.O / / / ^ / (*_*:*<*[*}*|*'#",
"1*2*3*4*_*p&)&Q K+H+L 5*L G%j ,.F%.@>.! h ' ' ' ' ' ' ' -.' ;.L .@/@l@L+/ ^ / ^ p&P 6*7*8*9*0*a*S@b*",
"c*U#d*e*f*@+ %Q K+H+L +@~ k+4%l@k '.j j+h ' ' ' ' ' ' ' ' h j+j '.N ++l+/ l / ^ +*m+:*8*g*h*i*6 j*,#",
"0 8#k*l*m*n*n ] N C$&%/%C$K+++] 3%4%(%L h ' ' ' ' ' ' h m&q%G%.+ @O / / / / / n o*p*q*r*s*t*x@v$x@x@",
"@.Y$u%u*v*I.e&&*<+w*C$C${ :%o 3%k /@F.i h ' ' ' ' ' h ! L ~ /@l@] / ^ / / ^ Q  #e&x*y*z*'@T@S@R.b@7#",
"2.j#A*B*~*C*I.p L+3%l@l@3%o )._%(%/%i ;.' ' ' ' ' ' h E.j '.N ).Q / ^ / l ( n F@D*|+E*F*G*6 R.z :$8 ",
"b j#k#H*d V I*`@Q J*O O Q Q <+M &%J+h ' ' ' ' ' ' ' ;.&%M (@O Q / / / / ^ @+m+n+1%&$K*L*M*R.N*N#3 9 ",
"b j#9#,%X+/#(#n+m !.^ ^ ^ Q  @O*L h ) ' ' ' ' ' ' ' ;.h+P*).l ^ / / / / ^ !.[+E#Q*D&R*S*T*R.j$s.9 0 "};
