/* XPM */
static char * wall_up_50_xpm[] = {
"50 50 565 2",
"  	c None",
". 	c #A88868",
"+ 	c #AA8A69",
"@ 	c #AB8B6A",
"# 	c #AC8C6B",
"$ 	c #AF8F6D",
"% 	c #A78768",
"& 	c #8B6C56",
"* 	c #62413C",
"= 	c #4E2730",
"- 	c #725246",
"; 	c #98795E",
"> 	c #B0906D",
", 	c #AE8E6C",
"' 	c #AB8B6B",
") 	c #AA8B6A",
"! 	c #A98A69",
"~ 	c #A98969",
"{ 	c #A48466",
"] 	c #896A54",
"^ 	c #63413C",
"/ 	c #512A31",
"( 	c #725245",
"_ 	c #96765C",
": 	c #AD8D6B",
"< 	c #A98968",
"[ 	c #AA8A6A",
"} 	c #A38364",
"| 	c #9E7D60",
"1 	c #9C7B5E",
"2 	c #9E7D5F",
"3 	c #9F7E60",
"4 	c #99785C",
"5 	c #83634E",
"6 	c #67433B",
"7 	c #5A3433",
"8 	c #714F42",
"9 	c #8D6C54",
"0 	c #9C7C5F",
"a 	c #A07F61",
"b 	c #9B7B5D",
"c 	c #9B7B5E",
"d 	c #9D7C5F",
"e 	c #9F7E62",
"f 	c #A28064",
"g 	c #A38165",
"h 	c #A38265",
"i 	c #A68566",
"j 	c #A88968",
"k 	c #AD8E6C",
"l 	c #AD8D6C",
"m 	c #A78767",
"n 	c #9B7A5D",
"o 	c #8D6B52",
"p 	c #85624B",
"q 	c #86634C",
"r 	c #88654E",
"s 	c #85624C",
"t 	c #7A5644",
"u 	c #6C4639",
"v 	c #663F36",
"w 	c #714C3D",
"x 	c #7F5B47",
"y 	c #87654D",
"z 	c #89674F",
"A 	c #88664E",
"B 	c #87644D",
"C 	c #84624A",
"D 	c #89664F",
"E 	c #916E57",
"F 	c #98735D",
"G 	c #9A755F",
"H 	c #99745E",
"I 	c #98735E",
"J 	c #9B7860",
"K 	c #A88768",
"L 	c #AB8C6B",
"M 	c #917056",
"N 	c #7C5743",
"O 	c #6F4637",
"P 	c #6E4536",
"Q 	c #714A39",
"R 	c #724B3A",
"S 	c #704838",
"T 	c #6F4738",
"U 	c #704839",
"V 	c #724A3A",
"W 	c #734B3B",
"X 	c #734C3B",
"Y 	c #6F4837",
"Z 	c #714938",
"` 	c #795242",
" .	c #855E4E",
"..	c #8F6857",
"+.	c #926A5A",
"@.	c #916859",
"#.	c #906858",
"$.	c #946E5B",
"%.	c #9D7A61",
"&.	c #AA8B69",
"*.	c #A48265",
"=.	c #A48366",
"-.	c #A38264",
";.	c #A18062",
">.	c #9F7E61",
",.	c #A08062",
"'.	c #98785C",
").	c #673B2F",
"!.	c #65392D",
"~.	c #693E31",
"{.	c #6B4133",
"].	c #6E4535",
"^.	c #714838",
"/.	c #724A38",
"(.	c #704737",
"_.	c #6D4334",
":.	c #6A4032",
"<.	c #6A3F32",
"[.	c #6A3F31",
"}.	c #6C4234",
"|.	c #6E4436",
"1.	c #72483B",
"2.	c #7A5143",
"3.	c #845C4E",
"4.	c #8D6455",
"5.	c #8F6658",
"6.	c #8E6457",
"7.	c #8D6456",
"8.	c #916A59",
"9.	c #99755E",
"0.	c #A17F63",
"a.	c #A48365",
"b.	c #9C7860",
"c.	c #9C7861",
"d.	c #9D7962",
"e.	c #99755D",
"f.	c #926F57",
"g.	c #8D6A51",
"h.	c #8A684F",
"i.	c #8B6950",
"j.	c #86644C",
"k.	c #714939",
"l.	c #693F31",
"m.	c #6C4334",
"n.	c #6F4636",
"o.	c #72493A",
"p.	c #795142",
"q.	c #805849",
"r.	c #865D4F",
"s.	c #8A6253",
"t.	c #8E6556",
"u.	c #8F6657",
"v.	c #8E6557",
"w.	c #956E5B",
"x.	c #9B775F",
"y.	c #9A765F",
"z.	c #A17F64",
"A.	c #AC8D6B",
"B.	c #936B5A",
"C.	c #946C5B",
"D.	c #956D5C",
"E.	c #936C5B",
"F.	c #8D6655",
"G.	c #825C4A",
"H.	c #78513F",
"I.	c #734D3A",
"J.	c #734D3B",
"K.	c #754E3C",
"L.	c #744D3C",
"M.	c #6F4737",
"N.	c #704738",
"O.	c #6E4636",
"P.	c #6D4535",
"Q.	c #785141",
"R.	c #845D4D",
"S.	c #8D6555",
"T.	c #916959",
"U.	c #926A59",
"V.	c #936D5A",
"W.	c #A58466",
"X.	c #AB8C6A",
"Y.	c #896152",
"Z.	c #8B6354",
"`.	c #8A6153",
" +	c #835A4D",
".+	c #754D41",
"++	c #683F34",
"@+	c #64392E",
"#+	c #663B2F",
"$+	c #6F4736",
"%+	c #7A5243",
"&+	c #876050",
"*+	c #936B5B",
"=+	c #8F6757",
"-+	c #8E6657",
";+	c #8D6356",
">+	c #8F6758",
",+	c #96715B",
"'+	c #9D7B60",
")+	c #A18162",
"!+	c #7E5547",
"~+	c #7F5648",
"{+	c #805749",
"]+	c #774F43",
"^+	c #69413A",
"/+	c #5D3331",
"(+	c #5B312E",
"_+	c #623830",
":+	c #6A4033",
"<+	c #6D4435",
"[+	c #704837",
"}+	c #875F50",
"|+	c #8F6557",
"1+	c #8E6855",
"2+	c #8D6A53",
"3+	c #8D6B51",
"4+	c #734B3C",
"5+	c #744C3C",
"6+	c #754D3C",
"7+	c #6D4539",
"8+	c #5F3835",
"9+	c #542C31",
"0+	c #562E31",
"a+	c #623A34",
"b+	c #6D4537",
"c+	c #865E4F",
"d+	c #926959",
"e+	c #8E6656",
"f+	c #875F4F",
"g+	c #7D5645",
"h+	c #76503E",
"i+	c #754F3C",
"j+	c #77513F",
"k+	c #704736",
"l+	c #6E4635",
"m+	c #673F34",
"n+	c #593231",
"o+	c #4E262F",
"p+	c #522B31",
"q+	c #613A34",
"r+	c #6C4537",
"s+	c #6C4436",
"t+	c #6C4434",
"u+	c #7A5242",
"v+	c #835B4C",
"w+	c #744C3D",
"x+	c #683E2F",
"y+	c #6B4233",
"z+	c #613934",
"A+	c #6B4337",
"B+	c #643D35",
"C+	c #633C33",
"D+	c #684033",
"E+	c #865F4F",
"F+	c #683D2F",
"G+	c #694136",
"H+	c #5C3432",
"I+	c #502830",
"J+	c #724938",
"K+	c #663F35",
"L+	c #5B3432",
"M+	c #552E31",
"N+	c #5A3331",
"O+	c #653D32",
"P+	c #7B5342",
"Q+	c #845C4D",
"R+	c #774F40",
"S+	c #724A39",
"T+	c #6A4236",
"U+	c #5C3533",
"V+	c #512930",
"W+	c #542D31",
"X+	c #4E2630",
"Y+	c #552D30",
"Z+	c #633B32",
"`+	c #785040",
" @	c #734B39",
".@	c #5D3633",
"+@	c #653E35",
"@@	c #4D252F",
"#@	c #623B32",
"$@	c #7B5343",
"%@	c #573032",
"&@	c #4F2730",
"*@	c #562E30",
"=@	c #684036",
"-@	c #5B3433",
";@	c #6D4637",
">@	c #633C35",
",@	c #562F31",
"'@	c #572F30",
")@	c #633C32",
"!@	c #6E4637",
"~@	c #6A4336",
"{@	c #663E35",
"]@	c #5F3834",
"^@	c #623B34",
"/@	c #643C35",
"(@	c #562F30",
"_@	c #593232",
":@	c #532C31",
"<@	c #633C34",
"[@	c #5E3733",
"}@	c #4C232F",
"|@	c #4B222F",
"1@	c #4A212F",
"2@	c #572F31",
"3@	c #6E4638",
"4@	c #4E2530",
"5@	c #4D242F",
"6@	c #522A30",
"7@	c #684136",
"8@	c #49202F",
"9@	c #4A202F",
"0@	c #572F32",
"a@	c #552D31",
"b@	c #4C242F",
"c@	c #623B33",
"d@	c #87604F",
"e@	c #4F2630",
"f@	c #694236",
"g@	c #6B4335",
"h@	c #7A5343",
"i@	c #886050",
"j@	c #946C5C",
"k@	c #946B5B",
"l@	c #936A5A",
"m@	c #512A30",
"n@	c #5A3332",
"o@	c #714837",
"p@	c #865E4E",
"q@	c #502930",
"r@	c #764F3F",
"s@	c #886151",
"t@	c #8C6454",
"u@	c #8D6556",
"v@	c #7E5647",
"w@	c #754D3E",
"x@	c #734A39",
"y@	c #775040",
"z@	c #785041",
"A@	c #7D5545",
"B@	c #7F5848",
"C@	c #754D3D",
"D@	c #774F3F",
"E@	c #6E4738",
"F@	c #724939",
"G@	c #6D4434",
"H@	c #6C4333",
"I@	c #7C5545",
"J@	c #815A4A",
"K@	c #6A4231",
"L@	c #6B4232",
"M@	c #5F3833",
"N@	c #744B39",
"O@	c #835B4B",
"P@	c #886051",
"Q@	c #81594A",
"R@	c #724B3B",
"S@	c #6A4131",
"T@	c #6B4231",
"U@	c #6A4337",
"V@	c #603934",
"W@	c #835C4C",
"X@	c #825B4B",
"Y@	c #754E3E",
"Z@	c #6E4534",
"`@	c #673F36",
" #	c #5B3332",
".#	c #502730",
"+#	c #7E5747",
"@#	c #896151",
"##	c #7D5546",
"$#	c #744C3B",
"%#	c #734B3A",
"&#	c #653D34",
"*#	c #573031",
"=#	c #744C39",
"-#	c #593132",
";#	c #583132",
">#	c #643D34",
",#	c #6A4235",
"'#	c #764E3E",
")#	c #7D5646",
"!#	c #764E3D",
"~#	c #643C33",
"{#	c #4E252F",
"]#	c #4B212F",
"^#	c #532B31",
"/#	c #674036",
"(#	c #5B3431",
"_#	c #653D33",
":#	c #855E4D",
"<#	c #845C4C",
"[#	c #795140",
"}#	c #583131",
"|#	c #6C4437",
"1#	c #583032",
"2#	c #583030",
"3#	c #643C32",
"4#	c #7C5443",
"5#	c #7A5342",
"6#	c #583130",
"7#	c #7E5644",
"8#	c #8A6251",
"9#	c #956C5C",
"0#	c #593131",
"a#	c #5A3231",
"b#	c #7D5543",
"c#	c #896150",
"d#	c #7B5341",
"e#	c #6B4437",
"f#	c #583031",
"g#	c #623A32",
"h#	c #603831",
"i#	c #542C30",
"j#	c #6B443A",
"k#	c #764F42",
"l#	c #815A4C",
"m#	c #6F483E",
"n#	c #572F2F",
"o#	c #532B2F",
"p#	c #684137",
"q#	c #7E5645",
"r#	c #7D564B",
"s#	c #66403C",
"t#	c #532B30",
"u#	c #4D232C",
"v#	c #4E262E",
"w#	c #613930",
"x#	c #78503F",
"y#	c #8D6656",
"z#	c #7B554B",
"A#	c #613C3B",
"B#	c #4B222E",
"C#	c #471B2B",
"D#	c #4C232E",
"E#	c #633B31",
"F#	c #764E3B",
"G#	c #7D5644",
"H#	c #855D4D",
"I#	c #855D4E",
"J#	c #8A6353",
"K#	c #8E6757",
"L#	c #7C564C",
"M#	c #4A212E",
"N#	c #461A2B",
"O#	c #663F34",
"P#	c #754C3A",
"Q#	c #774F3D",
"R#	c #966E5D",
"S#	c #7D564C",
"T#	c #623D3C",
"U#	c #481C2B",
"V#	c #4D232E",
"W#	c #522B30",
"X#	c #6D4536",
"Y#	c #6C4435",
"Z#	c #6B4333",
"`#	c #805848",
" $	c #8B6353",
".$	c #8B6455",
"+$	c #7A544A",
"@$	c #623C3B",
"#$	c #4D252E",
"$$	c #491E2C",
"%$	c #4D242E",
"&$	c #5C3431",
"*$	c #5C3531",
"=$	c #5D3631",
"-$	c #5D3531",
";$	c #593230",
">$	c #4D232D",
",$	c #4A202D",
"'$	c #4F262E",
")$	c #4B212D",
"!$	c #51282F",
"~$	c #643C34",
"{$	c #613A33",
"]$	c #623A31",
"^$	c #663E31",
"/$	c #6C4433",
"($	c #7B5443",
"_$	c #89604F",
":$	c #744E43",
"<$	c #5F3938",
"[$	c #491F2D",
"}$	c #673F33",
"|$	c #694134",
"1$	c #58302F",
"2$	c #4C222C",
"3$	c #471C2C",
"4$	c #491E2D",
"5$	c #4D2530",
"6$	c #4B232F",
"7$	c #613931",
"8$	c #542B2E",
"9$	c #4A1F2D",
"0$	c #50282F",
"a$	c #643D33",
"b$	c #7A5241",
"c$	c #7C5442",
"d$	c #6B453B",
"e$	c #5B3434",
"f$	c #4B212E",
"g$	c #744C3A",
"h$	c #633C36",
"i$	c #573033",
"j$	c #512931",
"k$	c #502831",
"l$	c #6D4538",
"m$	c #6C4538",
"n$	c #5F3935",
"o$	c #542D32",
"p$	c #6C4536",
"q$	c #7E5646",
"r$	c #7F5746",
"s$	c #7B5445",
"t$	c #754F44",
"u$	c #6F4942",
"v$	c #69443F",
"w$	c #633E3A",
"x$	c #5C3532",
"y$	c #5E3734",
"z$	c #6B443B",
"A$	c #785142",
"B$	c #7C5446",
"C$	c #744E44",
"D$	c #6C4742",
"E$	c #66413E",
"F$	c #603A38",
"G$	c #5D3533",
"H$	c #653E34",
"I$	c #896251",
"J$	c #876052",
"K$	c #855E51",
"L$	c #80594D",
"M$	c #765044",
"N$	c #6D463A",
"O$	c #674034",
"P$	c #684135",
"Q$	c #663E33",
"R$	c #764F41",
"S$	c #896252",
"T$	c #886153",
"U$	c #835D50",
"V$	c #7C564A",
"W$	c #724C40",
"X$	c #694237",
"Y$	c #532C30",
"Z$	c #825A4A",
"`$	c #916958",
" %	c #704836",
".%	c #956C5B",
"+%	c #906757",
"@%	c #774F3E",
"#%	c #6F4735",
"$%	c #7E5746",
"%%	c #966D5D",
"&%	c #946B5A",
"*%	c #8C6453",
"=%	c #7F5747",
"-%	c #704735",
";%	c #724937",
">%	c #6B4336",
". . . . . . . . . . . . + @ # $ $ % & * = - ; # > , ' ' ' ' @ ) + + + + ! ~ . . . . . . . . . . . . ",
". . . . . . . . . . . . . . ~ # # { ] ^ / ( _ ~ : @ . . . . . . . . . . . . . . . . . . . . . . . . ",
"< < < < < ~ ~ ~ + [ [ . } | 1 2 3 4 5 6 7 8 9 0 a | 1 1 b c d e f g f f h i . ~ ~ ~ < j . . . . . . ",
"+ + + ! + + @ @ # k l m n o p q r s t u v w x y z A B q C C D E F G H I J f K ) @ + ! ~ . . . . . . ",
"< < < < < ~ ~ ~ [ # L } M N O P Q R Q S T U V W X X W Q Y Z `  ...+.@.#.$.%.i + &.~ < . . . . . . . ",
"*.*.=.=.=.-.;.>.3 ;.,.'.y X ).!.~.{.].^./.(._.:.<.[.:.}.|.1.2.3.4.5.6.7.8.9.0.a.a.h *.i . ~ + ~ ~ ~ ",
"b.b.c.d.c.e.f.g.h.i.i.j.N k.:.l.{.m.n.^.Z (.].m.{.:.}.o.p.q.r.s.t.5.u.v.#.w.H x.y.9.J z.K # A.# @ @ ",
"B.B.C.D.E.F.G.H.I.J.K.L.R S M.M.N.S S S S S S S O.P.M.Q.R.S.#.#.#.#.#.#.#.T.8.U.#.#.V.b.W.) X.) + + ",
"Y.Y.s.Z.`. +.+++@+#+:.}.P M.S S S S S S S S S S $+P.S %+&+T.*++.#.#.#.#.#.=+-+v.;+;+>+,+'+;.)+;.,.,.",
"!+!+~+{+~+]+^+/+(+_+:+<+n.(.S S S S S S S Z Z /.[+].S %+}+T.*++.#.#.#.#.#.=+u.-+v.|+-+1+2+o 3+o o o ",
"4+4+5+6+5+7+8+9+0+a+b+Z Z S S S S S S S S ^.Z Z (.].S ` c+=++.d+#.#.#.#.#.#.#.#.T.T.e+f+g+h+i+h+j+j+",
"].].n.k+l+m+n+o+p+q+b+/./.S S S S S S S S T b+r+s+t+S u+c+=++.T.#.#.#.#.#.#.#.#.+.+.e+v+w+:.x+:.y+y+",
"].].l+k+l+m+n+o+p+z+b+/./.S S S S S Z Z S A+B+a+C+D+T u+E+=++.T.#.#.#.#.#.#.#.#.+.+.e+v+w+:.F+:.{.{.",
"M.M.S Z S G+H+I+9+q+b+J+/.S S S S S Z J+T K+L+M+N+O+T P+f+=++.T.#.#.#.#.#.#.#.#.U.+.e+Q+R+O.m.P M.M.",
"S S Z S+Z T+U+V+W+q+b+J+J+S S S S S J+S+T B+0+X+Y+Z+T P+f+=++.T.#.#.#.#.#.#.#.#.d++.e+R.`+M.P.M.S S ",
"S S Z  @S+A+.@V+9+q+b+J+J+S S S S S S+ @S +@0+@@Y+#@T $@f+=++.T.#.#.#.#.#.#.#.#.d++.e+R.`+M.P.M.S S ",
"S S Z  @S+A+.@V+9+q+b+J+J+S S S S S S+ @Z K+%@&@*@Z+T P+f+=++.T.#.#.#.#.#.#.#.#.d++.e+R.`+M.P.M.S S ",
"S S S Z T =@-@V+W+a+b+J+J+S S S S S Z S ;@>@,@I+'@)@T P+f+=++.T.#.#.#.#.#.#.#.#.d++.e+R.`+M.P.M.S S ",
"Z S !@~@{@]@0+I+M+^@b+J+J+S S Z Z T b+G+/@L+V+X+(@Z+T P+f+=++.T.#.#.#.#.#.#.#.#.d++.e+R.`+M.P.M.S S ",
"J+S A+^@_@:@&@&@,@<@;@J+J+S S Z Z T =@[@%@I+}@@@'@)@T $@f+=++.T.#.#.#.#.#.#.#.#.d++.e+R.`+M.P.M.S S ",
"S+S G+U+I+|@1@X+2@>@;@J+J+S S J+S+3@B+%@4@|@5@6@N+O+T P+f+=++.T.#.#.#.#.#.#.#.#.U.+.e+R.`+M.P.M.S S ",
"S+S 7@-@X+8@9@X+0@>@;@J+J+S S J+S+!@>@a@b@&@,@.@c@D+T $@d@#.*+*+T.T.T.#.#.#.#.#.+.*+=+ .Q.M.P.M.S S ",
"S+S G+U+I+|@1@X+2@>@;@J+J+S S J+S+!@>@M+e@,@q+f@g@m.S h@i@T.j@k@+.+.T.#.#.#.#.#.l@k@#.c+Q.M.P.M.S S ",
"S+S G+.@m@}@|@X+2@>@;@J+J+S S J+/.!@>@M+I+n@7@^.o@l+S ` p@=+U.T.#.#.#.#.#.#.#.#.T.d+e+R.`+M.P.M.S S ",
"S+S G+.@m@}@|@X+2@>@;@/.S+Z Z S+S+!@>@M+q@-@T+S+/.k+S r@q.f+s@}+c+i@t@=+T.T.T.=+u@s.p@v@w@M.O.[+Z Z ",
"S+S G+.@m@}@|@X+,@>@;@S+x@S+S+x@S+!@<@M+I+L+G+Z /.o@S W y@$@h@z@y@A@c+e+d+l@T.e+i@B@` C@V S [+Z S+S+",
"S+S G+.@m@}@|@X+2@>@;@J+/.Z S /.S+!@>@M+I+n@7@S S+Z S S S S M.P.n.r@v+u@+.*++.u@v+D@M.].M.S S S S S ",
"S+S G+.@m@}@|@X+0@B+!@Z !@T+f@b+S E@/@0+I+L+G+Z x@F@S n.G@H@P.S C@I@c+e++.*++.S.J@W K@L@n.S 3@A+G+7@",
"S+S G+.@m@}@|@X+%@B+3@T =@M@[@K+E@T B+,@q@-@T+S+N@S+S O.L@L@k.h@O@P@t@=+T.l@+.S.Q@R@S@T@$+S U@^@.@-@",
"S+S G+.@m@}@|@X+%@+@T !@^@a@:@V@b+T +@,@I+L+G+Z x@Z S O.t+O.D@W@S.T.T.#.#.+.+.S.X@Y@].Z@o@T `@ #V+e@",
"x@Z f@.@m@}@|@X+%@+@T ;@V@V+.#M@b+S K+%@I+%@<@~@b+!@S Q W D@+#@#T.*++.#.#.T.T.e+E+##r@$#%#M.&#*#5@9@",
"=#S+~@[@m@}@|@X+%@+@T ;@z+m@q@V@!@Z =@-#&@m@;#M@>#,#S '#)#W@@#u@T.+.T.#.#.T.T.=+t@i@O@A@!#!@~#*#{#]#",
" @Z T+.@m@}@|@X+%@+@T !@q+^#6@V@!@S /#_@&@}@4@^#(#_#T u+:#S.#.T.#.#.#.#.#.#.#.#.T.#.S.<#[#!@Z+}#&@5@",
"b+|#+@L+V+5@|@X+%@{@T 3@^@9+m@.@7@A+>@1#&@1@8@{#2#3#S 4#@#T.j@+.#.#.#.#.#.#.#.#.+.*+#.f+5#!@Z+}#I+5@",
"q+V@U+,@V+{#}@X+1#K+^.S B+M+I+,@[@V@-@W+&@}@1@X+6#O+Z 7#8#+.9#*+#.#.#.#.#.#.#.#.+.*+#.f+P+[+3#0#I+5@",
"W+9+^#m@I+e@5@X+1#K+S T B+0+X+&@^#9+^#V+I+{#b@I+a#O+Z b#c#T.*++.#.#.#.#.#.#.#.#.+.+.=+p@d#M.3#0#I+5@",
"@@{#X+&@I+&@{#e@,@<@e#A+q+M+X+b@@@{#X+&@I+e@@@I+f#g#|#y@v+Z.=+#.#.T.T.#.#.#.#.#.U.+.e+R.R+~@h#'@I+@@",
"@@@@X+&@I+I+e@&@9+-@q+V@ #^#e@@@@@{#X+&@I+&@e@I+i#a#q+j#k#q.f+S.T.*+B.+.T.T.#.#.U.+.e+l#m#M@n#o#I+e@",
"&@&@I+I+I+I+I+I+V+:@a@a@^#V+I+&@&@&@I+I+I+I+I+I+I+V+a@[@p#4+q#i@#.*+*++.T.T.#.#.+.B.u@r#s#t#u#v#I+I+",
"I+I+I+I+I+I+I+I+&@e@X+X+&@I+I+I+I+I+I+I+I+I+I+I+4@|@{#*@w#t+x#O@t@=+=+y#e+=+#.T.B.B.u@z#A#B#C#D#I+I+",
"{#{#{#{#{#4@4@4@{#@@@@{#e@I+I+I+I+I+I+I+I+&@X+{#}@1@5@(@E#P.F#G#O@H#W@X@I#J##.B.D.D.K#L#A#M#N#D#I+I+",
"@@@@@@@@@@@@@@@@{#X+&@&@I+I+I+I+I+I+I+I+I+&@4@@@}@|@&@_@O#[+P#Q#x#x#C@C@h@I#=+*+R#D.>+S#T#D#U#V#I+I+",
"W#W#W#W#W#W#W#W#6@V+I+&@.#I+I+I+I+I+I+I+I+V+6@W#I+{#&@-#+@;@S !@X#Y#Z#t+5+`# $#.l@U..$+$@$#$$$%$I+I+",
"&$&$&$&$&$*$=$-$;$o#>$,$B#@@X+X+X+4@@@5@e@i#a#&$'@'$)$!$L+^@~${$h#]$^$/$ @($O@f+c#_$v+:$<${#[$D#X+4@",
"}$}$}$}$}$D+|$D+Z+1$2$3$4$}@5$5$@@5@6$|@X+0#C+}$7$8$$$9$0$M+M+t#t#a#a$O.N@Q#[#b$c$c$y@d$e$o+f$}@@@5@",
"V V V V V %#g$%#3@h$i$j$k$V+V+V+m@V+&@X+^#V@l$V m$n$o$k$I+I+&@@@&@0@>@b+S S M.!@M.[+p$<@*#&@4@I+m@m@",
"q$q$q$q$q$r$r$r$s$t$u$v$w$8+x$H+U+.@ #a#y$z$A$q$B$C$D$E$F$-@0#}#n@G$q++@K+H$3#Z+3#3#g#(#i#I+:@_@.@[@",
"@#@#@#@#@#I$8#8#@#J$K$L$M$N$O$m+P$G+m+Q$U@R$X@S$J#T$U$V$W$X$Q$O$7@{@V@-@;#f#}#f#}#0#*#Y$I+V+_@>@f@~@",
"#.#.#.#.#.#.#.#.T.+.+.S.Z$w@O.].(.S O.].V A@@#`$*+*+T.@#A@V l+ %Z e#V@:@@@5@&@I+I+I+&@{#5@m@.@f@^.S+",
"+.+.+.+.+.+.+.+.B.9#.%+%<#@% %#%Z /. %#%%#$% $+.%%R#&%*%=%%#-%;% @b+V@m@1@1@b@5@5@5@5@}@}@6@[@>%S+=#"};
